/* XPM */
static const char * c4x_xpm[] = {
"48 48 675 2",
"  	c None",
". 	c #656565",
"+ 	c #757575",
"@ 	c #868686",
"# 	c #959595",
"$ 	c #A1A1A1",
"% 	c #A7A7A7",
"& 	c #A9A9A9",
"* 	c #AAAAAA",
"= 	c #ACACAC",
"- 	c #ABABAB",
"; 	c #9C9C9C",
"> 	c #8F8F8F",
", 	c #727272",
"' 	c #777777",
") 	c #989898",
"! 	c #ADADAD",
"~ 	c #B7B7B7",
"{ 	c #BCBCBC",
"] 	c #BDBDBD",
"^ 	c #BBBBBB",
"/ 	c #B9B9B9",
"( 	c #B8B8B8",
"_ 	c #BABABA",
": 	c #C2C2C2",
"< 	c #C5C5C5",
"[ 	c #636363",
"} 	c #6E6E6E",
"| 	c #9A9A9A",
"1 	c #B5B5B5",
"2 	c #B3B3B3",
"3 	c #B4B4B4",
"4 	c #C0C0C0",
"5 	c #6F6F6F",
"6 	c #A5A5A5",
"7 	c #B2B2B2",
"8 	c #B1B1B1",
"9 	c #BDBCBC",
"0 	c #636160",
"a 	c #A4A4A4",
"b 	c #BEBEBE",
"c 	c #B6B6B6",
"d 	c #BABAB9",
"e 	c #B1B3B3",
"f 	c #ADACAC",
"g 	c #645D57",
"h 	c #6B6B6B",
"i 	c #B0B0B0",
"j 	c #AFAFAF",
"k 	c #A8A8A8",
"l 	c #AEAEAE",
"m 	c #AEAFAF",
"n 	c #A1A2A3",
"o 	c #999998",
"p 	c #818181",
"q 	c #C4C4C4",
"r 	c #929292",
"s 	c #8D8D8D",
"t 	c #8C8C8C",
"u 	c #8A8A8A",
"v 	c #A2A2A2",
"w 	c #A3A3A3",
"x 	c #979798",
"y 	c #868789",
"z 	c #555555",
"A 	c #7A7A7A",
"B 	c #CBCBCB",
"C 	c #C3C3C3",
"D 	c #949494",
"E 	c #919191",
"F 	c #898A8A",
"G 	c #828484",
"H 	c #808282",
"I 	c #7E8080",
"J 	c #7C7E7E",
"K 	c #7B7D7D",
"L 	c #8E8E8E",
"M 	c #909090",
"N 	c #969899",
"O 	c #656C6E",
"P 	c #CDCDCD",
"Q 	c #C9C9C9",
"R 	c #A6A6A6",
"S 	c #7D7E7E",
"T 	c #797E7E",
"U 	c #757D7D",
"V 	c #717979",
"W 	c #6D7171",
"X 	c #6C6C6C",
"Y 	c #6A6666",
"Z 	c #686363",
"` 	c #666363",
" .	c #636364",
"..	c #646868",
"+.	c #6F7777",
"@.	c #6B7675",
"#.	c #757373",
"$.	c #674848",
"%.	c #C6C6C6",
"&.	c #D3D3D3",
"*.	c #9DA0A0",
"=.	c #959C9C",
"-.	c #696C6C",
";.	c #665353",
">.	c #6F3B3B",
",.	c #782727",
"'.	c #831818",
").	c #8B1010",
"!.	c #920A0A",
"~.	c #930707",
"{.	c #900A0A",
"].	c #890F0E",
"^.	c #861715",
"/.	c #832622",
"(.	c #952A28",
"_.	c #9C1211",
":.	c #BA100F",
"<.	c #D02418",
"[.	c #CA2C1D",
"}.	c #A9372C",
"|.	c #7A4C46",
"1.	c #606060",
"2.	c #CECECE",
"3.	c #9D9F9F",
"4.	c #8D9595",
"5.	c #898383",
"6.	c #814A4A",
"7.	c #8A1515",
"8.	c #AC0505",
"9.	c #BD0000",
"0.	c #C60000",
"a.	c #C80000",
"b.	c #C90000",
"c.	c #C30000",
"d.	c #BB0000",
"e.	c #B80000",
"f.	c #BA0000",
"g.	c #D30200",
"h.	c #D90904",
"i.	c #DD1C0E",
"j.	c #DF2B13",
"k.	c #DF2B0E",
"l.	c #D72109",
"m.	c #CA2710",
"n.	c #77433E",
"o.	c #A0A6A7",
"p.	c #87898A",
"q.	c #7A3F3F",
"r.	c #9C0B0A",
"s.	c #B70000",
"t.	c #C50101",
"u.	c #C60101",
"v.	c #C20000",
"w.	c #C10000",
"x.	c #960000",
"y.	c #740000",
"z.	c #710000",
"A.	c #740100",
"B.	c #790100",
"C.	c #800101",
"D.	c #910501",
"E.	c #A90F01",
"F.	c #C41601",
"G.	c #D61C02",
"H.	c #D22200",
"I.	c #C01602",
"J.	c #C01D03",
"K.	c #D82C05",
"L.	c #88382A",
"M.	c #838383",
"N.	c #BEBEBF",
"O.	c #C7C7C7",
"P.	c #B6B6B7",
"Q.	c #AAAEAF",
"R.	c #8D6F6F",
"S.	c #931A1A",
"T.	c #A70000",
"U.	c #930000",
"V.	c #7E0000",
"W.	c #7A0000",
"X.	c #970000",
"Y.	c #C00000",
"Z.	c #BE0000",
"`.	c #9E0000",
" +	c #5C1D1D",
".+	c #523C3C",
"++	c #561F1F",
"@+	c #690804",
"#+	c #861701",
"$+	c #9C1D01",
"%+	c #C52800",
"&+	c #C62800",
"*+	c #BE2200",
"=+	c #CC2A01",
"-+	c #D62C06",
";+	c #616161",
">+	c #CBCACB",
",+	c #CFD0D0",
"'+	c #C7C8C9",
")+	c #C1C2C2",
"!+	c #B0B5B6",
"~+	c #665E5F",
"{+	c #930F0F",
"]+	c #A80000",
"^+	c #890000",
"/+	c #5A1212",
"(+	c #533232",
"_+	c #503D3D",
":+	c #492525",
"<+	c #850606",
"[+	c #980303",
"}+	c #5D3E39",
"|+	c #6F1503",
"1+	c #9E2300",
"2+	c #CC3000",
"3+	c #CF3000",
"4+	c #CC2E00",
"5+	c #D52F03",
"6+	c #B72B0E",
"7+	c #D4D5D5",
"8+	c #CED0D0",
"9+	c #BFC1C2",
"0+	c #616465",
"a+	c #904444",
"b+	c #7E0707",
"c+	c #602322",
"d+	c #891010",
"e+	c #CC0000",
"f+	c #B00000",
"g+	c #811313",
"h+	c #392F2E",
"i+	c #942302",
"j+	c #D03100",
"k+	c #D33100",
"l+	c #D13200",
"m+	c #D13000",
"n+	c #C22601",
"o+	c #686868",
"p+	c #CACACA",
"q+	c #D0D1D1",
"r+	c #CCCDCE",
"s+	c #C5C6C7",
"t+	c #C6C8C9",
"u+	c #767879",
"v+	c #B80303",
"w+	c #AA0000",
"x+	c #5E3737",
"y+	c #B02902",
"z+	c #DC3400",
"A+	c #D13100",
"B+	c #D33200",
"C+	c #BF2D00",
"D+	c #8B2306",
"E+	c #9B9B9B",
"F+	c #C9C9CA",
"G+	c #B9BBBB",
"H+	c #B4B5B6",
"I+	c #B0B2B4",
"J+	c #939596",
"K+	c #6B3031",
"L+	c #DA0000",
"M+	c #C40000",
"N+	c #C60500",
"O+	c #BE0600",
"P+	c #910704",
"Q+	c #514442",
"R+	c #C92C01",
"S+	c #D63300",
"T+	c #D53201",
"U+	c #8C2000",
"V+	c #4E3C37",
"W+	c #B6B7B6",
"X+	c #A8AAAA",
"Y+	c #A5A7A8",
"Z+	c #A4A6A8",
"`+	c #5D5D5E",
" @	c #881B1A",
".@	c #D30000",
"+@	c #C20100",
"@@	c #CD0A00",
"#@	c #B90B00",
"$@	c #752015",
"%@	c #A43011",
"&@	c #D93300",
"*@	c #D63102",
"=@	c #C42D02",
"-@	c #9E2400",
";@	c #50271B",
">@	c #9B9C9C",
",@	c #9A9C9D",
"'@	c #9B9E9F",
")@	c #8F9193",
"!@	c #BF0707",
"~@	c #CA0000",
"{@	c #C50200",
"]@	c #CE0900",
"^@	c #AF1600",
"/@	c #512F26",
"(@	c #734B46",
"_@	c #BC2A13",
":@	c #E22D08",
"<@	c #D7290B",
"[@	c #B42506",
"}@	c #8F2001",
"|@	c #5D2010",
"1@	c #797A79",
"2@	c #666869",
"3@	c #8C8F90",
"4@	c #797C7E",
"5@	c #623C3C",
"6@	c #D70000",
"7@	c #C60200",
"8@	c #B50B00",
"9@	c #831C02",
"0@	c #302C29",
"a@	c #3D4142",
"b@	c #B92720",
"c@	c #EA2514",
"d@	c #E12016",
"e@	c #C91E12",
"f@	c #A91D08",
"g@	c #791B02",
"h@	c #48241A",
"i@	c #434343",
"j@	c #9F9F9F",
"k@	c #5B5B5B",
"l@	c #5B5D5F",
"m@	c #5E6162",
"n@	c #911615",
"o@	c #D40000",
"p@	c #BD0F00",
"q@	c #9F1C00",
"r@	c #502F23",
"s@	c #4A4F50",
"t@	c #786866",
"u@	c #644241",
"v@	c #602D2D",
"w@	c #922B29",
"x@	c #C41C19",
"y@	c #E31C17",
"z@	c #DE1D18",
"A@	c #C41613",
"B@	c #A10F08",
"C@	c #7E0F01",
"D@	c #621A0C",
"E@	c #423633",
"F@	c #999999",
"G@	c #878787",
"H@	c #6A6A6A",
"I@	c #737373",
"J@	c #767575",
"K@	c #6A7878",
"L@	c #785554",
"M@	c #D30C09",
"N@	c #CD0601",
"O@	c #CF1101",
"P@	c #CD2900",
"Q@	c #D13302",
"R@	c #B73A1C",
"S@	c #BF3226",
"T@	c #D3241F",
"U@	c #D71815",
"V@	c #DB110F",
"W@	c #DC0B0A",
"X@	c #D20C0B",
"Y@	c #AF0F0C",
"Z@	c #8D0806",
"`@	c #780301",
" #	c #5A0F0C",
".#	c #3F2C2B",
"+#	c #969696",
"@#	c #ABABAA",
"##	c #989F9F",
"$#	c #95716F",
"%#	c #C62E2A",
"&#	c #DA0F09",
"*#	c #D50901",
"=#	c #D70D01",
"-#	c #D51F00",
";#	c #DA3602",
">#	c #E22F0E",
",#	c #D60F08",
"'#	c #CF0905",
")#	c #D30D0C",
"!#	c #CE0505",
"~#	c #AD0000",
"{#	c #7A0502",
"]#	c #6C0704",
"^#	c #490E0C",
"/#	c #362020",
"(#	c #3A3838",
"_#	c #A0A0A0",
":#	c #9FA3A3",
"<#	c #988280",
"[#	c #D4231F",
"}#	c #DD0D0A",
"|#	c #D10604",
"1#	c #D00300",
"2#	c #CF0500",
"3#	c #D01600",
"4#	c #D62B00",
"5#	c #D71704",
"6#	c #D00501",
"7#	c #CD0300",
"8#	c #CC0504",
"9#	c #CB0101",
"0#	c #8C100B",
"a#	c #3F1915",
"b#	c #202322",
"c#	c #2C3132",
"d#	c #3F4142",
"e#	c #4D4D4D",
"f#	c #98A2A2",
"g#	c #9D5C5A",
"h#	c #B60000",
"i#	c #CC0300",
"j#	c #C70D00",
"k#	c #C61200",
"l#	c #CE2200",
"m#	c #DE2602",
"n#	c #D90B04",
"o#	c #CE0400",
"p#	c #CD0701",
"q#	c #CE0501",
"r#	c #D00301",
"s#	c #D10302",
"t#	c #D81411",
"u#	c #C92017",
"v#	c #9F2014",
"w#	c #552720",
"x#	c #403B3A",
"y#	c #515151",
"z#	c #999B9B",
"A#	c #797675",
"B#	c #911513",
"C#	c #C60900",
"D#	c #C42100",
"E#	c #AE2200",
"F#	c #9E2100",
"G#	c #A61A04",
"H#	c #A80502",
"I#	c #B30000",
"J#	c #C00300",
"K#	c #CA0700",
"L#	c #CE0A01",
"M#	c #CD0902",
"N#	c #D20D06",
"O#	c #D61205",
"P#	c #CE1506",
"Q#	c #B31A10",
"R#	c #862927",
"S#	c #624241",
"T#	c #474747",
"U#	c #7D7D7D",
"V#	c #959696",
"W#	c #6E7979",
"X#	c #A02421",
"Y#	c #BF1800",
"Z#	c #C82E00",
"`#	c #9A2400",
" $	c #581B0A",
".$	c #54150D",
"+$	c #640605",
"@$	c #700000",
"#$	c #7F0000",
"$$	c #AE0100",
"%$	c #C10400",
"&$	c #CA0A00",
"*$	c #CD0E00",
"=$	c #CD1600",
"-$	c #D02200",
";$	c #D11E01",
">$	c #DB1709",
",$	c #DE130D",
"'$	c #C51F1A",
")$	c #9F322F",
"!$	c #5C5C5C",
"~$	c #919494",
"{$	c #716E6E",
"]$	c #B81715",
"^$	c #C40D00",
"/$	c #C62A00",
"($	c #C12C00",
"_$	c #8A290C",
":$	c #3E3F3F",
"<$	c #464747",
"[$	c #4F4646",
"}$	c #543535",
"|$	c #680404",
"1$	c #800000",
"2$	c #9C0000",
"3$	c #B70100",
"4$	c #C60400",
"5$	c #CD1500",
"6$	c #CF2600",
"7$	c #CC2501",
"8$	c #CC1A03",
"9$	c #D51304",
"0$	c #E01106",
"a$	c #D81408",
"b$	c #A82A22",
"c$	c #454545",
"d$	c #626262",
"e$	c #A1A2A2",
"f$	c #818C8C",
"g$	c #904C49",
"h$	c #CC0E05",
"i$	c #C02000",
"j$	c #B92700",
"k$	c #713728",
"l$	c #555E60",
"m$	c #686969",
"n$	c #666868",
"o$	c #5C6161",
"p$	c #595E5E",
"q$	c #534848",
"r$	c #522E2E",
"s$	c #551616",
"t$	c #660506",
"u$	c #7E0300",
"v$	c #950300",
"w$	c #B00800",
"x$	c #C50D00",
"y$	c #CD1300",
"z$	c #CB1A00",
"A$	c #C31500",
"B$	c #C80D00",
"C$	c #D30C02",
"D$	c #DD0F05",
"E$	c #DF0F07",
"F$	c #AC201D",
"G$	c #3B3B3B",
"H$	c #545454",
"I$	c #868C8C",
"J$	c #806765",
"K$	c #C71F17",
"L$	c #C51602",
"M$	c #C92B00",
"N$	c #CE2E00",
"O$	c #A51F01",
"P$	c #5E4642",
"Q$	c #626768",
"R$	c #6D6D6D",
"S$	c #696969",
"T$	c #5A5A5A",
"U$	c #5D6060",
"V$	c #565C5C",
"W$	c #495050",
"X$	c #393131",
"Y$	c #421313",
"Z$	c #620502",
"`$	c #7E0A00",
" %	c #8E1302",
".%	c #A61500",
"+%	c #B91900",
"@%	c #B91A00",
"#%	c #B71000",
"$%	c #C30901",
"%%	c #CB0C03",
"&%	c #D60B07",
"*%	c #DC0E09",
"=%	c #DF0C08",
"-%	c #CA0D09",
";%	c #8B3D36",
">%	c #494949",
",%	c #595959",
"'%	c #666666",
")%	c #656666",
"!%	c #555F60",
"~%	c #873831",
"{%	c #D31604",
"]%	c #C32001",
"^%	c #D12D00",
"/%	c #C22300",
"(%	c #84200E",
"_%	c #4A4B4B",
":%	c #5C5D5E",
"<%	c #646464",
"[%	c #5E5E5E",
"}%	c #4E4E4E",
"|%	c #4B4B4B",
"1%	c #464646",
"2%	c #3B3D3D",
"3%	c #4F2928",
"4%	c #621009",
"5%	c #741101",
"6%	c #861900",
"7%	c #991F00",
"8%	c #A91E00",
"9%	c #B51800",
"0%	c #B51500",
"a%	c #BB0C01",
"b%	c #C90A05",
"c%	c #CD0D08",
"d%	c #C31402",
"e%	c #9F3C2A",
"f%	c #404040",
"g%	c #434545",
"h%	c #3C3E3F",
"i%	c #AA2614",
"j%	c #D21F02",
"k%	c #C82500",
"l%	c #D22800",
"m%	c #B81900",
"n%	c #5D251F",
"o%	c #3A4244",
"p%	c #4A4A4A",
"q%	c #552A26",
"r%	c #671206",
"s%	c #7F1501",
"t%	c #911C01",
"u%	c #A82300",
"v%	c #B01C00",
"w%	c #B41700",
"x%	c #BE1B01",
"y%	c #A81C00",
"z%	c #664641",
"A%	c #562F29",
"B%	c #D52806",
"C%	c #CC2301",
"D%	c #CD2200",
"E%	c #CE1D00",
"F%	c #B41200",
"G%	c #452F2D",
"H%	c #543F3C",
"I%	c #5F2219",
"J%	c #841901",
"K%	c #A52200",
"L%	c #B11F01",
"M%	c #BB2200",
"N%	c #811B05",
"O%	c #8C311F",
"P%	c #E02902",
"Q%	c #C92100",
"R%	c #D01A00",
"S%	c #C91400",
"T%	c #9A0D08",
"U%	c #7D2611",
"V%	c #9D2000",
"W%	c #8E1F01",
"X%	c #622E25",
"Y%	c #C12B09",
"Z%	c #D72100",
"`%	c #CC1800",
" &	c #D01500",
".&	c #C30800",
"+&	c #7B1819",
"@&	c #6C4339",
"#&	c #DA2300",
"$&	c #CE1000",
"%&	c #CB0D00",
"&&	c #CB0C00",
"*&	c #BB0100",
"=&	c #672929",
"-&	c #6A3C38",
";&	c #D81100",
">&	c #C90900",
",&	c #C70300",
"'&	c #B10000",
")&	c #5A3C3C",
"!&	c #7B2B2A",
"~&	c #DA0500",
"{&	c #C60600",
"]&	c #B50300",
"^&	c #A00000",
"/&	c #9A1D1C",
"(&	c #8D0000",
"_&	c #770000",
":&	c #6C0000",
"<&	c #691010",
"[&	c #7D2424",
"}&	c #5B0B0B",
"|&	c #422727",
"1&	c #453A3A",
"2&	c #563031",
"                                                                                                ",
"                                                                                                ",
"                                                                                                ",
"                                                                                                ",
"                                            . + @ # $ % & * = - % ; > ,                         ",
"                                    ' ) ! ~ { ] ^ / ( ( ~ ~ ( / _ { : < [                       ",
"                              } | ~ ^ ~ ~ 1 2 3 3 2 2 2 3 3 3 1 1 1 { 4 (                       ",
"                          5 6 ^ 1 7 8 7 7 2 2 2 3 3 3 1 1 1 1 3 3 ~ ~ ] 9 0                     ",
"                        a b c 7 2 2 2 3 2 2 2 2 3 1 3 1 c c c 1 ( ] d e f g                     ",
"                    h c 1 8 i i 8 j 8 2 2 2 j = * k % % * = l 1 : ( m n o                       ",
"                  p { 3 7 3 3 7 3 b q b * $ % $ ) r s t u u > v w ! x y z                       ",
"                A { 3 2 2 8 7 : B C 8 1 $ u r D E F G H I J K F L M N O                         ",
"              + / 8 8 8 l ^ P Q / / R & $ S T U V W X Y Z `  ...+.@.#.$.                        ",
"            X { 7 7 8 i %.&.%.3 3 j ) *.=.-.;.>.,.'.).!.~.{.].^./.(._.:.<.[.}.|.                ",
"          1.2 8 l j i %.2.C { i * 3.4.5.6.7.8.9.0.a.b.b.c.d.e.f.f.0.g.h.i.j.k.l.m.n.            ",
"          & c 2 2 7 %.Q b C 1 * o.p.q.r.s.t.u.0.v.w.w.c.x.y.z.A.B.C.D.E.F.G.H.I.J.K.L.          ",
"        M._ 8 7 j { %.N.O.b P.Q.R.S.T.U.V.y.W.X.Y.v.v.Z.`. +      .+++@+#+$+%+&+*+=+-+          ",
"      ;+7 - & & ! < >+,+'+)+!+~+{+]+^+/+(+_+:+<+c.v.c.e.[+              }+|+1+2+3+4+5+6+        ",
"      E = % & R 1 2.7+8+'+9+0+  a+b+c+        d+e+w.v.f+g+                h+i+j+k+l+m+n+        ",
"    o+1 = ! ! j p+q+r+s+t+u+                  v+a.v.v.w+x+                  y+z+A+B+C+D+        ",
"    E+7 l j l ( F+G+H+I+J+                  K+L+M+N+O+P+                  Q+R+S+T+C+U+V+        ",
"    i = - = * 1 W+X+Y+Z+`+                   @.@+@@@#@$@                  %@&@*@=@-@;@          ",
"  } j % % k & & >@,@'@)@                    !@~@{@]@^@/@              (@_@:@<@[@}@|@            ",
"  s % a 6 R k k 1@2@3@4@                  5@6@c.7@8@9@0@a@          b@c@d@e@f@g@h@i@            ",
"  ; k % k * = i j@k@l@m@                  n@o@+@p@q@r@s@t@u@v@w@x@y@z@A@B@C@D@E@                ",
"  a - & & - = = j = F@G@, X H@X 5 I@J@K@L@M@N@O@P@Q@R@S@T@U@V@W@X@Y@Z@`@ #.#                    ",
"  +#R w w a a 6 6 k @#! 8 8 8 2 7 - ##$#%#&#*#=#-#;#>#,#'#)#!#~#{#]#^#/#(#                      ",
"  X % _#$ v w a R R k k & * - = * :#<#[#}#|#1#2#3#4#5#6#7#8#9#Z.0#a#b#c#d#                      ",
"  e#; k 6 R k & * * * - - = = ! & f#g#h#c.i#j#k#l#m#n#o#p#q#r#s#t#u#v#w#x#                      ",
"    y#E+& 6 a R R R k k * - = ! * z#A#B#M+C#D#E#F#G#H#I#J#K#L#L#M#N#O#P#Q#R#S#                  ",
"      T#U#k * % % % k & * & * - R V#W#X#e+Y#Z#`# $.$+$@$#$U.$$%$&$*$=$-$;$>$,$'$)$              ",
"          !$s R - = - = = l j l k ~${$]$^$/$($_$:$<$[$}$ +|$y.1$2$3$4$5$6$7$8$9$0$a$b$          ",
"            c$d$M.) R - ! ! j - e$f$g$h$i$3+j$k$l$m$n$o$p$q$r$s$t$u$v$w$x$y$z$A$B$C$D$E$F$      ",
"                G$H$X U#G@> # # I$J$K$L$M$N$O$P$Q$R$S$!$T$U$V$W$X$Y$Z$`$ %.%+%@%#%$%%%&%*%=%-%;%",
"                  i@G$>%,%d$'%)%!%~%{%]%^%/%(%_%:%[ <%[%H$}%|%1%2%    3%4%5%6%7%8%9%0%a%b%c%d%e%",
"                        T#f%i@g%h%i%j%k%l%m%n%o%|%e#p%|%                    q%r%s%t%u%v%w%x%y%z%",
"                                A%B%C%D%E%F%G%                                  H%I%J%K%L%M%N%  ",
"                                O%P%Q%R%S%T%                                          U%V%W%X%  ",
"                                Y%Z%`% &.&+&                                            @&      ",
"                                #&$&%&&&*&=&                                                    ",
"                              -&;&>&,&0.'&)&                                                    ",
"                              !&~&{&]&^&2$                                                      ",
"                              /&Y.(&_&:&<&                                                      ",
"                              [&^+}&|&1&                                                        ",
"                                2&                                                              ",
"                                                                                                ",
"                                                                                                ",
"                                                                                                "};
